# xmcd
#
# Track frame offsets:
#	150
#	21748
#	49503
#	85340
#	120814
#	143444
#	166797
#	207009
#
# Disc length: 3483 seconds
#
# Revision: 1
# Processed by: cddbd v1.5.2PL0 Copyright (c) Steve Scherf et al.
# Submitted via: audiograbber 1.83.01
#
DISCID=5a0d9908
DTITLE=Mark Knopfler - Live in Roma 2010
DYEAR=2010
DGENRE=Folk
TTITLE0=Border River
TTITLE1=What it Is
TTITLE2=Sailing to Philadelphia
TTITLE3=Coyote
TTITLE4=Prairie Wedding
TTITLE5=Hill Farmer's Blues
TTITLE6=Romeo and Juliet
TTITLE7=Sultans of Swing
EXTD=
EXTT0=
EXTT1=
EXTT2=
EXTT3=
EXTT4=
EXTT5=
EXTT6=
EXTT7=
PLAYORDER=
